PathFileType	4	(X/Y/Z)	./resultDataOpenSim/trcMotMarkerGrf/sub09/qtm-14-01.trc
DataRate	CameraRate	NumFrames	NumMarkers	Units	OrigDataRate	OrigDataStartFrame	OrigNumFrames
250.000000	250.000000	7	24	m	250.000000	127	507
Frame#	Time	L.Toe.Tip			R.Toe.Tip			L.Ankle.Lat			R.Ankle.Lat			L.Ankle.Med			R.Ankle.Med			L.Heel			R.Heel			L.Knee.Lat			R.Knee.Lat			L.Knee.Med			R.Knee.Med			L.Thigh.Upper			R.Thigh.Upper			L.ASIS			R.ASIS			V.Sacral			L.Acromium			R.Acromium			C7			L.Elbow			R.Elbow			L.Wrist.Lat			R.Wrist.Lat
		X1	Y1	Z1	X2	Y2	Z2	X3	Y3	Z3	X4	Y4	Z4	X5	Y5	Z5	X6	Y6	Z6	X7	Y7	Z7	X8	Y8	Z8	X9	Y9	Z9	X10	Y10	Z10	X11	Y11	Z11	X12	Y12	Z12	X13	Y13	Z13	X14	Y14	Z14	X15	Y15	Z15	X16	Y16	Z16	X17	Y17	Z17	X18	Y18	Z18	X19	Y19	Z19	X20	Y20	Z20	X21	Y21	Z21	X22	Y22	Z22	X23	Y23	Z23	X24	Y24	Z24

127	0.504	-0.15360457	0.09663006	-0.034727963	-0.64595692	0.039040821	0.058572624	-0.30896242	0.095851749	-0.072637215	-0.79517724	0.059902551	0.081595018	-0.28587805	0.11636901	0.02316853	-0.77111295	0.098051	-0.0063438256	-0.36186801	0.041091884	-0.019010604	-0.85950203	0.038770675	0.025558546	-0.38734835	0.50695383	-0.10680562	-0.6555358	0.49286681	0.16243406	-0.39251417	0.49869023	0.019561313	-0.66656704	0.48937839	0.032612162	-0.57192515	0.88550951	-0.1445978	-0.61638436	0.89825812	0.22673068	-0.51487324	0.97062543	-0.075930283	-0.50512915	0.97985747	0.16045135	-0.67109773	1.031158	0.031247873	-0.51617974	1.4260804	-0.13981105	-0.51989593	1.4388939	0.19043546	-0.58260299	1.4836735	0.025971069	-0.68577543	1.1003709	-0.18225948	-0.62754942	1.0800021	0.2902495	-0.59422614	0.85778481	-0.22693378	-0.38128038	0.94714662	0.26006775
128	0.508	-0.13806999	0.099723583	-0.033231525	-0.64598101	0.039027073	0.058549127	-0.29375269	0.096307496	-0.071641184	-0.79521368	0.060062998	0.081192294	-0.27087487	0.11763172	0.024052153	-0.77083944	0.098072593	-0.0067497125	-0.3454576	0.040857739	-0.017690078	-0.85939323	0.038957151	0.024877353	-0.3808623	0.50531611	-0.10680226	-0.6531949	0.49227182	0.16220576	-0.38623135	0.49686833	0.019544788	-0.6640928	0.48897733	0.03269036	-0.56571017	0.88368321	-0.14443729	-0.61109458	0.89714663	0.22660283	-0.50689184	0.9691012	-0.076676855	-0.4993215	0.97859162	0.16057753	-0.66451451	1.0295824	0.031982914	-0.51039615	1.4247238	-0.13995484	-0.51452729	1.4375614	0.19031806	-0.57708975	1.4822838	0.025802309	-0.68045615	1.0995355	-0.18230919	-0.62142432	1.0782995	0.29016871	-0.59085423	0.85651342	-0.22745239	-0.37417825	0.94740509	0.25967442
129	0.512	-0.12302534	0.10273372	-0.031830231	-0.64597597	0.038991114	0.058539376	-0.27887149	0.096891575	-0.070788801	-0.79522555	0.060246288	0.080786992	-0.25632816	0.11885904	0.024853369	-0.77059971	0.098049095	-0.0072233362	-0.32951318	0.040742377	-0.016646119	-0.85929527	0.039176079	0.024257571	-0.37410664	0.50367699	-0.10666624	-0.65139893	0.49198193	0.16228526	-0.37974257	0.49513205	0.019635684	-0.66156825	0.48849998	0.032726864	-0.55949511	0.88176046	-0.14432725	-0.6057619	0.89595563	0.22644236	-0.49884335	0.9675375	-0.077463624	-0.49349557	0.97724505	0.16066467	-0.65793419	1.0279725	0.032613506	-0.50460362	1.4233071	-0.14009697	-0.50914918	1.4361746	0.19020337	-0.5714844	1.48082	0.025552785	-0.67505466	1.098663	-0.18252025	-0.61528191	1.0765418	0.29005866	-0.58748189	0.85519398	-0.22804925	-0.36709642	0.9475547	0.2592848
130	0.516	-0.10847745	0.10562645	-0.030528634	-0.64595708	0.038942899	0.058538647	-0.26431865	0.09756497	-0.07005477	-0.79521168	0.060422313	0.080408837	-0.24224304	0.12002622	0.025560554	-0.77038481	0.097996967	-0.0077100093	-0.31405689	0.040700705	-0.015905064	-0.85920965	0.039427488	0.023714291	-0.36718431	0.50205183	-0.10644169	-0.64955217	0.49167319	0.16231657	-0.37305773	0.4935071	0.019847221	-0.65900423	0.4879173	0.032683311	-0.55330869	0.87975658	-0.14427552	-0.60040076	0.89470375	0.2262678	-0.49079416	0.96593496	-0.078264539	-0.48764557	0.97581624	0.16070854	-0.65142967	1.026317	0.032835343	-0.4987992	1.4218293	-0.1402526	-0.50375314	1.4347299	0.19007584	-0.56577158	1.4792876	0.025206129	-0.66972921	1.0977351	-0.18280999	-0.60912781	1.0747378	0.28992291	-0.58413107	0.85383679	-0.22872742	-0.36005062	0.94759948	0.25891343
131	0.52	-0.094411977	0.10838414	-0.029306379	-0.64593442	0.038887352	0.058528619	-0.25011795	0.098292129	-0.069423593	-0.79516498	0.060580257	0.080078575	-0.22863841	0.12110646	0.026181835	-0.77014748	0.097959169	-0.0081217851	-0.29910754	0.040678259	-0.015363236	-0.85913575	0.039704022	0.023243098	-0.36021132	0.50046115	-0.10618237	-0.64755441	0.49128192	0.16223922	-0.36620728	0.49198367	0.020178286	-0.65632379	0.48724085	0.03254653	-0.5471243	0.8776985	-0.14431105	-0.59500863	0.8933958	0.22607985	-0.48280992	0.96429399	-0.079053866	-0.48175944	0.97430297	0.16070289	-0.64500023	1.0245998	0.03269359	-0.49298347	1.4202925	-0.14044052	-0.49831952	1.4332272	0.18992088	-0.56003326	1.4777155	0.024836272	-0.66453546	1.0967354	-0.18310339	-0.60296661	1.0728966	0.2897628	-0.58070012	0.85244239	-0.22941323	-0.3530389	0.94754605	0.25855695
132	0.524	-0.080834754	0.11098995	-0.02815772	-0.64591018	0.038829398	0.058498542	-0.23632606	0.099034363	-0.068898453	-0.79507668	0.060725902	0.07979053	-0.21553291	0.12207139	0.026731726	-0.76985974	0.09796294	-0.0084242343	-0.28468475	0.040626049	-0.014901504	-0.85907529	0.040004657	0.022839882	-0.35322368	0.49892142	-0.10591302	-0.64544473	0.49083787	0.16209866	-0.35921219	0.49053383	0.020629571	-0.65347874	0.48649852	0.032330984	-0.54091274	0.87560536	-0.14444733	-0.58958257	0.89203543	0.22586982	-0.47495813	0.96261425	-0.079805298	-0.47583423	0.97271394	0.16064344	-0.63873136	1.0228323	0.032382058	-0.48715874	1.4187037	-0.14066821	-0.49283767	1.4316734	0.18974135	-0.55436066	1.4761278	0.02453048	-0.65939352	1.0956638	-0.18339139	-0.59680042	1.0710195	0.28957682	-0.57702501	0.85099971	-0.22999723	-0.34605339	0.94739727	0.25820707
133	0.528	-0.06778261	0.11340908	-0.027111373	-0.64588196	0.038772246	0.058446914	-0.2230206	0.099745184	-0.068487266	-0.79494546	0.060870245	0.079521658	-0.20292549	0.12288821	0.027224049	-0.76954001	0.098003219	-0.0086462345	-0.27083415	0.04053714	-0.014539067	-0.8590311	0.040342186	0.022513108	-0.34619531	0.49744098	-0.10563051	-0.64315423	0.49034532	0.16193133	-0.35209014	0.48913205	0.021192792	-0.65045625	0.48571749	0.032080123	-0.53468326	0.87348323	-0.14464845	-0.58413421	0.89062807	0.22564624	-0.4673107	0.96089401	-0.080491111	-0.46988126	0.97106585	0.16053545	-0.63270156	1.0210165	0.032014674	-0.48132371	1.417069	-0.1409267	-0.48731348	1.4300769	0.18954664	-0.54876375	1.4745309	0.024306997	-0.65421543	1.0945285	-0.18369223	-0.59062946	1.0691024	0.2893624	-0.57307226	0.84950017	-0.23045986	-0.33908958	0.94715338	0.25786034
